<svg xmlns="http://www.w3.org/2000/svg" width="48" height="48" fill="#1D4ED8" viewBox="0 0 24 24"><path d="M19.43 12.98c.04-.32.07-.65.07-.98s-.03-.66-.07-.98l2.11-1.65a.5.5 0 0 0 .12-.64l-2-3.46a.5.5 0 0 0-.61-.21l-2.49 1a7.007 7.007 0 0 0-1.7-.98l-.38-2.65A.5.5 0 0 0 13 2h-4a.5.5 0 0 0-.5.42l-.38 2.65c-.63.24-1.21.56-1.7.98l-2.49-1a.5.5 0 0 0-.61.21l-2 3.46a.5.5 0 0 0 .12.64l2.11 1.65c-.04.32-.07.65-.07.98s.03.66.07.98l-2.11 1.65a.5.5 0 0 0-.12.64l2 3.46c.14.24.43.33.68.21l2.49-1c.49.42 1.07.74 1.7.98l.38 2.65c.04.26.25.42.5.42h4c.25 0 .46-.16.5-.42l.38-2.65c.63-.24 1.21-.56 1.7-.98l2.49 1c.25.12.54.03.68-.21l2-3.46a.5.5 0 0 0-.12-.64l-2.11-1.65zM12 15.5a3.5 3.5 0 1 1 0-7 3.5 3.5 0 0 1 0 7z"/></svg>